<svg width="162" height="151" viewBox="0 0 162 151" fill="none" xmlns="http://www.w3.org/2000/svg">
<path d="M18.7089 56.8751C32.2089 56.8751 125.21 56.8751 149.709 56.8751C174.209 56.8751 158.209 102.875 135.209 102.875C112.209 102.875 82.7092 102.875 82.7092 102.875C82.7092 102.875 71.2093 114.375 58.7093 119.375C46.2093 124.375 21.7093 125.875 21.7093 125.875C21.7093 125.875 36.2093 119.375 42.7093 112.375C49.2093 105.375 45.2093 102.875 45.2093 102.875C45.2093 102.875 24.7093 102.875 7.70926 102.875C-9.29074 102.875 5.20887 56.8751 18.7089 56.8751Z" fill="white"/>
<path fill-rule="evenodd" clip-rule="evenodd" d="M0.102605 88.9756C-0.502171 96.753 1.5074 102.875 7.70926 102.875H45.2093C45.2093 102.875 45.4458 103.023 45.7104 103.347C47.5758 99.4791 45.2093 98 45.2093 98H7.70926C2.88088 98 0.593529 94.2892 0.102605 88.9756ZM32.8245 119.959C27.1275 123.446 21.7093 125.875 21.7093 125.875C21.7093 125.875 46.2093 124.375 58.7093 119.375C71.2093 114.375 82.7092 102.875 82.7092 102.875H135.209C150.94 102.875 163.396 81.3563 161.86 67.7547C160.538 81.0725 149.161 98 135.209 98H82.7092C82.7092 98 71.2093 109.5 58.7093 114.5C51.7078 117.301 40.9416 119.003 32.8245 119.959Z" fill="#DDDDDD"/>
<path d="M45.2093 102.875C45.2093 101.875 45.2092 101.875 45.209 101.875H45.2083H45.2072H45.2055H45.2034H45.2009H45.1978H45.1943H45.1904H45.186H45.1811H45.1758H45.17H45.1638H45.1571H45.1499H45.1423H45.1343H45.1258H45.1169H45.1075H45.0976H45.0873H45.0766H45.0654H45.0538H45.0418H45.0293H45.0163H45.003H44.9891H44.9749H44.9602H44.9451H44.9295H44.9136H44.8972H44.8803H44.863H44.8453H44.8272H44.8087H44.7897H44.7703H44.7505H44.7303H44.7096H44.6885H44.667H44.6451H44.6228H44.6H44.5769H44.5533H44.5293H44.505H44.4802H44.4549H44.4293H44.4033H44.3769H44.3501H44.3228H44.2952H44.2672H44.2387H44.2099H44.1807H44.1511H44.121H44.0906H44.0598H44.0286H43.997H43.9651H43.9327H43.8999H43.8668H43.8333H43.7994H43.7651H43.7304H43.6953H43.6599H43.6241H43.5879H43.5513H43.5144H43.477H43.4393H43.4013H43.3628H43.324H43.2848H43.2453H43.2054H43.1651H43.1244H43.0834H43.042H43.0003H42.9582H42.9157H42.8729H42.8298H42.7862H42.7423H42.6981H42.6535H42.6086H42.5633H42.5176H42.4716H42.4253H42.3786H42.3315H42.2842H42.2364H42.1884H42.14H42.0912H42.0421H41.9927H41.9429H41.8928H41.8424H41.7916H41.7405H41.6891H41.6373H41.5852H41.5328H41.48H41.427H41.3736H41.3198H41.2658H41.2114H41.1567H41.1017H41.0464H40.9907H40.9347H40.8785H40.8219H40.7649H40.7077H40.6502H40.5923H40.5342H40.4757H40.4169H40.3579H40.2985H40.2388H40.1788H40.1185H40.0579H39.997H39.9358H39.8743H39.8126H39.7505H39.6881H39.6254H39.5625H39.4992H39.4357H39.3718H39.3077H39.2433H39.1786H39.1137H39.0484H38.9829H38.917H38.8509H38.7845H38.7179H38.6509H38.5837H38.5162H38.4485H38.3804H38.3121H38.2436H38.1747H38.1056H38.0362H37.9665H37.8966H37.8265H37.756H37.6853H37.6143H37.5431H37.4716H37.3999H37.3279H37.2556H37.1831H37.1103H37.0373H36.9641H36.8905H36.8168H36.7428H36.6685H36.594H36.5192H36.4442H36.369H36.2935H36.2178H36.1418H36.0656H35.9892H35.9125H35.8356H35.7584H35.6811H35.6035H35.5256H35.4475H35.3692H35.2907H35.212H35.133H35.0538H34.9743H34.8947H34.8148H34.7347H34.6544H34.5739H34.4931H34.4122H34.331H34.2496H34.168H34.0862H34.0042H33.9219H33.8395H33.7568H33.674H33.5909H33.5076H33.4242H33.3405H33.2566H33.1725H33.0883H33.0038H32.9191H32.8343H32.7492H32.664H32.5785H32.4929H32.4071H32.321H32.2348H32.1484H32.0619H31.9751H31.8882H31.801H31.7137H31.6262H31.5386H31.4507H31.3627H31.2745H31.1861H31.0976H31.0088H30.9199H30.8309H30.7416H30.6522H30.5627H30.4729H30.383H30.2929H30.2027H30.1123H30.0218H29.931H29.8402H29.7491H29.6579H29.5666H29.4751H29.3834H29.2916H29.1997H29.1076H29.0153H28.9229H28.8303H28.7376H28.6448H28.5518H28.4587H28.3654H28.272H28.1784H28.0847H27.9909H27.8969H27.8028H27.7086H27.6142H27.5197H27.425H27.3303H27.2354H27.1404H27.0452H26.9499H26.8545H26.759H26.6633H26.5676H26.4717H26.3757H26.2795H26.1833H26.0869H25.9905H25.8939H25.7972H25.7003H25.6034H25.5064H25.4092H25.312H25.2146H25.1172H25.0196H24.9219H24.8241H24.7263H24.6283H24.5302H24.432H24.3338H24.2354H24.1369H24.0384H23.9397H23.841H23.7422H23.6432H23.5442H23.4451H23.346H23.2467H23.1473H23.0479H22.9484H22.8488H22.7491H22.6494H22.5495H22.4496H22.3496H22.2496H22.1495H22.0492H21.949H21.8486H21.7482H21.6477H21.5472H21.4466H21.3459H21.2451H21.1443H21.0435H20.9425H20.8416H20.7405H20.6394H20.5383H20.437H20.3358H20.2344H20.1331H20.0317H19.9302H19.8287H19.7271H19.6255H19.5238H19.4221H19.3204H19.2186H19.1167H19.0149H18.913H18.811H18.709H18.607H18.5049H18.4028H18.3007H18.1986H18.0964H17.9942H17.8919H17.7897H17.6874H17.585H17.4827H17.3803H17.2779H17.1755H17.0731H16.9707H16.8682H16.7657H16.6632H16.5607H16.4582H16.3556H16.2531H16.1505H16.048H15.9454H15.8428H15.7402H15.6376H15.535H15.4324H15.3298H15.2272H15.1246H15.022H14.9194H14.8169H14.7143H14.6117H14.5091H14.4065H14.304H14.2015H14.0989H13.9964H13.8939H13.7914H13.6889H13.5865H13.484H13.3816H13.2792H13.1768H13.0745H12.9721H12.8698H12.7675H12.6653H12.563H12.4608H12.3586H12.2565H12.1544H12.0523H11.9503H11.8483H11.7463H11.6443H11.5424H11.4406H11.3388H11.237H11.1353H11.0336H10.9319H10.8303H10.7288H10.6273H10.5258H10.4244H10.323H10.2217H10.1205H10.0193H9.91815H9.81707H9.71604H9.61507H9.51417H9.41332H9.31253H9.21181H9.11115H9.01056H8.91003H8.80957H8.70918H8.60886H8.50861H8.40843H8.30832H8.20829H8.10833H8.00845H7.90864H7.80891H7.70926C5.83399 101.875 4.4698 101.252 3.46969 100.207C2.44442 99.136 1.72865 97.5437 1.34002 95.5007C0.560521 91.403 1.16059 85.8235 2.73524 80.1422C4.3052 74.4779 6.80986 68.8354 9.72585 64.6327C11.184 62.5311 12.7223 60.8224 14.268 59.6479C15.816 58.4716 17.311 57.8751 18.7089 57.8751H18.7889H18.8707H18.9543H19.0398H19.127H19.216H19.3068H19.3993H19.4937H19.5898H19.6876H19.7872H19.8885H19.9916H20.0964H20.2029H20.3111H20.421H20.5327H20.646H20.761H20.8777H20.9961H21.1161H21.2378H21.3612H21.4862H21.6128H21.7411H21.871H22.0025H22.1356H22.2704H22.4067H22.5447H22.6842H22.8253H22.968H23.1122H23.2581H23.4054H23.5543H23.7048H23.8568H24.0103H24.1654H24.3219H24.48H24.6396H24.8006H24.9632H25.1272H25.2927H25.4597H25.6282H25.7981H25.9694H26.1422H26.3164H26.4921H26.6692H26.8477H27.0276H27.2089H27.3916H27.5757H27.7612H27.948H28.1362H28.3258H28.5168H28.7091H28.9027H29.0977H29.294H29.4916H29.6906H29.8908H30.0924H30.2952H30.4994H30.7048H30.9115H31.1195H31.3287H31.5392H31.7509H31.9639H32.1782H32.3936H32.6103H32.8282H33.0473H33.2676H33.4892H33.7119H33.9357H34.1608H34.3871H34.6145H34.843H35.0727H35.3036H35.5356H35.7687H36.003H36.2383H36.4748H36.7124H36.9511H37.1909H37.4317H37.6737H37.9167H38.1608H38.4059H38.6521H38.8993H39.1476H39.3969H39.6472H39.8986H40.1509H40.4043H40.6587H40.914H41.1704H41.4277H41.686H41.9453H42.2055H42.4667H42.7288H42.9919H43.2559H43.5208H43.7866H44.0534H44.321H44.5896H44.8591H45.1294H45.4006H45.6727H45.9457H46.2195H46.4942H46.7697H47.0461H47.3233H47.6013H47.8802H48.1598H48.4403H48.7215H49.0036H49.2865H49.5701H49.8545H50.1397H50.4256H50.7123H50.9997H51.2879H51.5768H51.8665H52.1568H52.4479H52.7397H53.0322H53.3253H53.6192H53.9138H54.209H54.5049H54.8014H55.0987H55.3965H55.695H55.9941H56.2939H56.5943H56.8953H57.1969H57.4991H57.8019H58.1053H58.4093H58.7139H59.019H59.3247H59.6309H59.9377H60.2451H60.5529H60.8613H61.1703H61.4797H61.7897H62.1001H62.4111H62.7225H63.0344H63.3468H63.6597H63.973H64.2868H64.6011H64.9157H65.2309H65.5464H65.8624H66.1788H66.4956H66.8128H67.1304H67.4484H67.7667H68.0855H68.4046H68.7241H69.044H69.3642H69.6847H70.0056H70.3268H70.6483H70.9702H71.2923H71.6148H71.9376H72.2606H72.584H72.9076H73.2315H73.5556H73.88H74.2047H74.5296H74.8548H75.1801H75.5057H75.8316H76.1576H76.4838H76.8103H77.1369H77.4637H77.7907H78.1179H78.4452H78.7727H79.1004H79.4282H79.7561H80.0842H80.4123H80.7406H81.0691H81.3976H81.7262H82.0549H82.3837H82.7126H83.0416H83.3706H83.6997H84.0288H84.358H84.6872H85.0165H85.3458H85.6751H86.0044H86.3337H86.663H86.9924H87.3217H87.6509H87.9802H88.3094H88.6386H88.9678H89.2968H89.6259H89.9548H90.2837H90.6125H90.9412H91.2699H91.5984H91.9268H92.2551H92.5833H92.9114H93.2393H93.5671H93.8948H94.2223H94.5496H94.8768H95.2038H95.5306H95.8573H96.1837H96.51H96.836H97.1619H97.4875H97.8129H98.138H98.463H98.7876H99.1121H99.4362H99.7601H100.084H100.407H100.73H101.053H101.375H101.698H102.02H102.341H102.662H102.983H103.304H103.624H103.944H104.263H104.582H104.901H105.22H105.538H105.855H106.173H106.489H106.806H107.122H107.437H107.752H108.067H108.381H108.695H109.009H109.321H109.634H109.946H110.257H110.568H110.879H111.189H111.498H111.807H112.116H112.424H112.731H113.038H113.344H113.65H113.955H114.259H114.563H114.867H115.17H115.472H115.774H116.075H116.375H116.675H116.974H117.273H117.57H117.868H118.164H118.46H118.755H119.05H119.344H119.637H119.93H120.222H120.513H120.803H121.093H121.382H121.67H121.957H122.244H122.53H122.815H123.1H123.383H123.666H123.948H124.23H124.51H124.79H125.069H125.347H125.624H125.901H126.176H126.451H126.725H126.998H127.27H127.541H127.811H128.081H128.35H128.617H128.884H129.15H129.415H129.679H129.942H130.204H130.466H130.726H130.985H131.243H131.501H131.757H132.013H132.267H132.521H132.773H133.024H133.275H133.524H133.772H134.02H134.266H134.511H134.755H134.998H135.24H135.481H135.721H135.96H136.197H136.434H136.669H136.904H137.137H137.369H137.6H137.83H138.058H138.286H138.512H138.737H138.961H139.184H139.406H139.626H139.845H140.063H140.28H140.495H140.71H140.923H141.134H141.345H141.554H141.762H141.969H142.175H142.379H142.582H142.783H142.984H143.183H143.38H143.577H143.772H143.966H144.158H144.349H144.539H144.727H144.914H145.099H145.284H145.466H145.648H145.828H146.006H146.183H146.359H146.533H146.706H146.878H147.048H147.216H147.383H147.549H147.713H147.876H148.037H148.196H148.355H148.511H148.666H148.82H148.972H149.123H149.272H149.419H149.565H149.709C152.613 57.8751 154.838 58.5552 156.504 59.6804C158.168 60.804 159.344 62.4184 160.075 64.4078C161.552 68.4244 161.192 73.922 159.322 79.5604C157.461 85.1759 154.148 90.7861 149.919 94.9773C145.687 99.1713 140.613 101.875 135.209 101.875H135.074H134.939H134.804H134.669H134.533H134.398H134.262H134.126H133.99H133.854H133.718H133.582H133.445H133.308H133.172H133.035H132.898H132.761H132.623H132.486H132.349H132.211H132.073H131.935H131.798H131.66H131.521H131.383H131.245H131.106H130.968H130.829H130.69H130.552H130.413H130.274H130.134H129.995H129.856H129.717H129.577H129.437H129.298H129.158H129.018H128.878H128.739H128.599H128.458H128.318H128.178H128.038H127.897H127.757H127.616H127.476H127.335H127.195H127.054H126.913H126.772H126.632H126.491H126.35H126.209H126.068H125.926H125.785H125.644H125.503H125.362H125.22H125.079H124.938H124.796H124.655H124.513H124.372H124.231H124.089H123.947H123.806H123.664H123.523H123.381H123.24H123.098H122.956H122.815H122.673H122.531H122.39H122.248H122.107H121.965H121.823H121.682H121.54H121.398H121.257H121.115H120.974H120.832H120.691H120.549H120.408H120.266H120.125H119.983H119.842H119.7H119.559H119.418H119.276H119.135H118.994H118.853H118.712H118.571H118.429H118.288H118.147H118.007H117.866H117.725H117.584H117.443H117.303H117.162H117.022H116.881H116.741H116.6H116.46H116.32H116.18H116.04H115.9H115.76H115.62H115.48H115.34H115.201H115.061H114.922H114.782H114.643H114.504H114.365H114.226H114.087H113.948H113.809H113.671H113.532H113.394H113.255H113.117H112.979H112.841H112.703H112.565H112.427H112.29H112.152H112.015H111.878H111.741H111.604H111.467H111.33H111.194H111.057H110.921H110.784H110.648H110.512H110.377H110.241H110.105H109.97H109.835H109.7H109.565H109.43H109.295H109.161H109.026H108.892H108.758H108.624H108.49H108.357H108.223H108.09H107.957H107.824H107.691H107.559H107.426H107.294H107.162H107.03H106.898H106.767H106.635H106.504H106.373H106.242H106.112H105.981H105.851H105.721H105.591H105.462H105.332H105.203H105.074H104.945H104.816H104.688H104.56H104.432H104.304H104.176H104.049H103.922H103.795H103.668H103.541H103.415H103.289H103.163H103.038H102.912H102.787H102.662H102.537H102.413H102.289H102.165H102.041H101.917H101.794H101.671H101.548H101.426H101.303H101.181H101.059H100.938H100.817H100.696H100.575H100.454H100.334H100.214H100.094H99.975H99.8558H99.7369H99.6182H99.4998H99.3817H99.2639H99.1464H99.0291H98.9121H98.7954H98.679H98.5629H98.447H98.3315H98.2162H98.1012H97.9866H97.8722H97.7581H97.6443H97.5308H97.4176H97.3048H97.1922H97.0799H96.968H96.8563H96.745H96.6339H96.5232H96.4128H96.3028H96.193H96.0836H95.9744H95.8657H95.7572H95.6491H95.5413H95.4338H95.3266H95.2198H95.1133H95.0072H94.9014H94.796H94.6908H94.5861H94.4816H94.3776H94.2738H94.1704H94.0674H93.9647H93.8624H93.7605H93.6589H93.5576H93.4567H93.3562H93.256H93.1562H93.0568H92.9578H92.8591H92.7608H92.6628H92.5653H92.4681H92.3713H92.2749H92.1788H92.0832H91.9879H91.893H91.7985H91.7044H91.6107H91.5174H91.4245H91.3319H91.2398H91.1481H91.0567H90.9658H90.8753H90.7852H90.6955H90.6062H90.5173H90.4288H90.3408H90.2531H90.1659H90.0791H89.9927H89.9068H89.8212H89.7361H89.6514H89.5672H89.4834H89.4H89.317H89.2345H89.1524H89.0707H88.9895H88.9088H88.8285H88.7486H88.6692H88.5902H88.5116H88.4336H88.3559H88.2788H88.202H88.1258H88.05H87.9747H87.8998H87.8254H87.7514H87.678H87.6049H87.5324H87.4604H87.3888H87.3176H87.247H87.1768H87.1072H87.038H86.9693H86.901H86.8333H86.7661H86.6993H86.633H86.5672H86.502H86.4372H86.3729H86.3091H86.2458H86.183H86.1208H86.059H85.9977H85.937H85.8767H85.817H85.7578H85.6991H85.6409H85.5832H85.5261H85.4695H85.4134H85.3578H85.3028H85.2483H85.1943H85.1408H85.0879H85.0355H84.9837H84.9324H84.8816H84.8314H84.7817H84.7325H84.684H84.6359H84.5884H84.5415H84.4951H84.4492H84.404H84.3592H84.3151H84.2715H84.2284H84.186H84.1441H84.1027H84.0619H84.0217H83.9821H83.943H83.9046H83.8667H83.8293H83.7926H83.7564H83.7208H83.6859H83.6514H83.6176H83.5844H83.5518H83.5197H83.4883H83.4574H83.4271H83.3975H83.3684H83.34H83.3121H83.2849H83.2583H83.2322H83.2068H83.182H83.1578H83.1343H83.1113H83.089H83.0672H83.0462H83.0257H83.0058H82.9866H82.968H82.9501H82.9327H82.9161H82.9H82.8846H82.8698H82.8556H82.8421H82.8293H82.8171H82.8055H82.7946H82.7843H82.7747H82.7657H82.7574H82.7497H82.7427H82.7364H82.7307H82.7257H82.7213H82.7177H82.7146H82.7123H82.7106H82.7096C82.7094 101.875 82.7092 101.875 82.7092 102.875V101.875H82.295L82.0022 102.168L82.0021 102.168L82.0021 102.168L82.0009 102.169L81.9956 102.175L81.9725 102.197C81.9516 102.218 81.9198 102.249 81.8775 102.291C81.7928 102.374 81.6659 102.497 81.4994 102.656C81.1662 102.975 80.6746 103.438 80.0448 104.01C78.785 105.154 76.9747 106.732 74.7775 108.465C70.3716 111.94 64.4588 115.998 58.3379 118.447C52.2155 120.896 43.0765 122.509 35.3928 123.508C32.1625 123.929 29.2087 124.238 26.8734 124.455C27.9061 123.918 29.0543 123.302 30.2626 122.621C34.712 120.115 40.0794 116.677 43.4421 113.056C46.7772 109.464 47.6301 106.805 47.389 104.876C47.269 103.916 46.8842 103.216 46.5153 102.753C46.3324 102.523 46.1543 102.352 46.0154 102.234C45.9458 102.175 45.8854 102.128 45.8382 102.094C45.8146 102.077 45.7943 102.063 45.7776 102.052L45.7555 102.037L45.7466 102.032L45.7428 102.029L45.741 102.028C45.7401 102.028 45.7393 102.027 45.2093 102.875ZM45.2093 102.875V101.875H45.4961L45.7393 102.027L45.2093 102.875Z" stroke="black" stroke-width="2"/>
<path d="M5.68934 61.1183C5.68934 61.1183 11.1893 52.1183 22.6893 52.6183M132.189 107.118C143.189 107.618 157.189 97.1183 159.189 88.6183" stroke="black" stroke-width="2" stroke-linecap="round"/>
<path d="M33.4455 85.1183C33.3281 85.1183 33.2321 85.081 33.1575 85.0063C33.0721 84.9317 33.0295 84.8357 33.0295 84.7183C33.0295 84.569 33.0935 84.4357 33.2215 84.3183C33.3495 84.201 33.4935 84.1423 33.6535 84.1423H35.2055L37.0775 75.3743H35.5255C35.4081 75.3743 35.3068 75.337 35.2215 75.2623C35.1468 75.1877 35.1095 75.097 35.1095 74.9903C35.1095 74.8303 35.1735 74.6917 35.3015 74.5743C35.4295 74.457 35.5735 74.3983 35.7335 74.3983H39.7975C39.9148 74.3983 40.0108 74.4357 40.0855 74.5103C40.1601 74.5743 40.1975 74.6597 40.1975 74.7663C40.1975 74.9157 40.1335 75.0543 40.0055 75.1823C39.8775 75.3103 39.7388 75.3743 39.5895 75.3743H38.0535L36.1815 84.1423H37.7175C37.8348 84.1423 37.9308 84.1743 38.0055 84.2383C38.0801 84.3023 38.1175 84.3877 38.1175 84.4943C38.1175 84.6543 38.0535 84.7983 37.9255 84.9263C37.8081 85.0543 37.6695 85.1183 37.5095 85.1183H33.4455ZM41.8071 85.2303C41.6577 85.2303 41.5511 85.1823 41.4871 85.0863C41.4231 84.9903 41.4017 84.8783 41.4231 84.7503L42.8471 78.1423H41.0071C40.9004 78.1423 40.8097 78.1103 40.7351 78.0463C40.6604 77.9717 40.6231 77.8757 40.6231 77.7583C40.6231 77.5983 40.6817 77.4703 40.7991 77.3743C40.9271 77.2677 41.0764 77.2143 41.2471 77.2143H43.0391L43.5031 74.9903C43.5244 74.8623 43.5937 74.7503 43.7111 74.6543C43.8391 74.5477 43.9671 74.4943 44.0951 74.4943C44.2444 74.4943 44.3511 74.5477 44.4151 74.6543C44.4791 74.761 44.4951 74.873 44.4631 74.9903L43.9991 77.2143H45.8391C45.9564 77.2143 46.0471 77.2517 46.1111 77.3263C46.1857 77.3903 46.2231 77.481 46.2231 77.5983C46.2231 77.737 46.1591 77.865 46.0311 77.9823C45.9137 78.089 45.7804 78.1423 45.6311 78.1423H43.8071L42.3991 84.7663C42.3671 84.8943 42.2871 85.0063 42.1591 85.1023C42.0417 85.1877 41.9244 85.2303 41.8071 85.2303ZM48.1496 76.1263C48.0642 76.1263 47.9896 76.0997 47.9256 76.0463C47.8616 75.9823 47.8296 75.9077 47.8296 75.8223C47.8296 75.737 47.8509 75.657 47.8936 75.5823L48.4856 74.5903C48.4749 74.5797 48.4536 74.5423 48.4216 74.4783C48.3896 74.4143 48.3736 74.3343 48.3736 74.2383C48.3736 74.025 48.4589 73.8277 48.6296 73.6463C48.8109 73.4543 49.0082 73.3583 49.2216 73.3583C49.3602 73.3583 49.4722 73.4063 49.5576 73.5023C49.6429 73.5877 49.6856 73.705 49.6856 73.8543C49.6856 74.0037 49.5522 74.2917 49.2856 74.7183L48.6776 75.6783C48.5816 75.849 48.4909 75.9663 48.4056 76.0303C48.3309 76.0943 48.2456 76.1263 48.1496 76.1263ZM52.3065 85.2143C51.7198 85.2143 51.2238 85.113 50.8185 84.9103C50.4238 84.697 50.1305 84.441 49.9385 84.1423C49.7465 83.833 49.6505 83.545 49.6505 83.2783C49.6505 83.1183 49.7091 82.9743 49.8265 82.8463C49.9438 82.7183 50.0771 82.6543 50.2265 82.6543C50.4398 82.6543 50.5625 82.761 50.5945 82.9743C50.6478 83.433 50.8291 83.7743 51.1385 83.9983C51.4478 84.2223 51.8958 84.3343 52.4825 84.3343C52.8345 84.3343 53.1651 84.2597 53.4745 84.1103C53.7945 83.9503 54.0451 83.7423 54.2265 83.4863C54.4185 83.2197 54.5145 82.9423 54.5145 82.6543C54.5145 82.409 54.4025 82.201 54.1785 82.0303C53.9545 81.849 53.5438 81.657 52.9465 81.4543C52.2425 81.2197 51.7305 80.953 51.4105 80.6543C51.0905 80.3557 50.9305 79.9663 50.9305 79.4863C50.9305 79.0703 51.0531 78.6917 51.2985 78.3503C51.5438 77.9983 51.8958 77.7263 52.3545 77.5343C52.8131 77.3317 53.3465 77.2303 53.9545 77.2303C54.7225 77.2303 55.2985 77.3583 55.6825 77.6143C56.0771 77.8597 56.2745 78.2117 56.2745 78.6703C56.2745 78.9477 56.2105 79.209 56.0825 79.4543C55.9651 79.689 55.7998 79.8063 55.5865 79.8063C55.4691 79.8063 55.3731 79.7743 55.2985 79.7103C55.2238 79.6463 55.1865 79.5663 55.1865 79.4703C55.1865 79.4063 55.2131 79.3157 55.2665 79.1983C55.3198 79.081 55.3465 78.9583 55.3465 78.8303C55.3465 78.329 54.8771 78.0783 53.9385 78.0783C53.2985 78.0783 52.7865 78.1957 52.4025 78.4303C52.0291 78.665 51.8425 78.9637 51.8425 79.3263C51.8425 79.6143 51.9598 79.849 52.1945 80.0303C52.4291 80.2117 52.8345 80.4037 53.4105 80.6063C54.1678 80.8837 54.6958 81.1503 54.9945 81.4063C55.3038 81.6623 55.4585 82.025 55.4585 82.4943C55.4585 82.9637 55.3091 83.4117 55.0105 83.8383C54.7225 84.2543 54.3331 84.5903 53.8425 84.8463C53.3625 85.0917 52.8505 85.2143 52.3065 85.2143ZM66.2592 85.2143C65.5232 85.2143 64.9312 84.9903 64.4832 84.5423C64.0459 84.0837 63.8272 83.4703 63.8272 82.7023C63.8272 81.881 64.0512 81.0437 64.4992 80.1903C64.9472 79.337 65.5445 78.633 66.2912 78.0783C67.0485 77.513 67.8592 77.2303 68.7232 77.2303C69.4805 77.2303 70.2432 77.449 71.0112 77.8863L69.5392 84.8303C69.4965 84.9903 69.4165 85.113 69.2992 85.1983C69.1925 85.2943 69.0752 85.3423 68.9472 85.3423C68.8085 85.3423 68.7019 85.2943 68.6272 85.1983C68.5632 85.113 68.5472 84.9957 68.5792 84.8463L68.6912 84.3503C68.3285 84.6063 67.9339 84.8143 67.5072 84.9743C67.0912 85.1343 66.6752 85.2143 66.2592 85.2143ZM66.4352 84.3183C66.8619 84.3183 67.2992 84.217 67.7472 84.0143C68.1952 83.8117 68.5632 83.5983 68.8512 83.3743L69.9552 78.4623C69.7845 78.3877 69.5712 78.3183 69.3152 78.2543C69.0592 78.1797 68.8139 78.1423 68.5792 78.1423C67.9712 78.1423 67.3739 78.361 66.7872 78.7983C66.2112 79.225 65.7365 79.7797 65.3632 80.4623C65.0005 81.145 64.8192 81.833 64.8192 82.5263C64.8192 83.721 65.3579 84.3183 66.4352 84.3183ZM79.3261 85.2143C79.2087 85.2143 79.1074 85.1717 79.0221 85.0863C78.9367 84.9903 78.9047 84.8837 78.9261 84.7663L81.0861 74.6383C81.1181 74.5103 81.1874 74.409 81.2941 74.3343C81.4114 74.249 81.5341 74.2063 81.6621 74.2063C81.7901 74.2063 81.8914 74.249 81.9661 74.3343C82.0407 74.409 82.0621 74.5103 82.0301 74.6383L81.1981 78.6543C81.5927 78.2597 82.0674 77.945 82.6221 77.7103C83.1767 77.4757 83.7261 77.3583 84.2701 77.3583C85.0167 77.3583 85.5661 77.5877 85.9181 78.0463C86.2701 78.4943 86.4461 79.0757 86.4461 79.7903C86.4461 80.4197 86.3181 81.0917 86.0621 81.8063C85.8167 82.5103 85.4914 83.1077 85.0861 83.5983C84.2754 84.601 83.2354 85.1023 81.9661 85.1023C81.5821 85.1023 81.2034 85.0597 80.8301 84.9743C80.4567 84.8783 80.1474 84.7717 79.9021 84.6543L79.8701 84.7983C79.8381 84.905 79.7687 85.001 79.6621 85.0863C79.5661 85.1717 79.4541 85.2143 79.3261 85.2143ZM82.0141 84.1903C83.1234 84.1903 83.9767 83.769 84.5741 82.9263C84.8407 82.5743 85.0594 82.1157 85.2301 81.5503C85.4114 80.9743 85.5021 80.457 85.5021 79.9983C85.5021 79.5077 85.3901 79.1023 85.1661 78.7823C84.9527 78.4623 84.6007 78.3023 84.1101 78.3023C83.5767 78.3023 83.0701 78.4037 82.5901 78.6063C82.1207 78.7983 81.7207 79.065 81.3901 79.4063C81.0701 79.737 80.8674 80.105 80.7821 80.5103L80.0941 83.7743C80.2647 83.8597 80.5314 83.9503 80.8941 84.0463C81.2567 84.1423 81.6301 84.1903 82.0141 84.1903ZM90.7842 75.9343C90.6669 75.9343 90.5655 75.8863 90.4802 75.7903C90.4055 75.6943 90.3842 75.577 90.4162 75.4383L90.5762 74.7983C90.6082 74.6703 90.6775 74.5637 90.7842 74.4783C90.9015 74.3823 91.0242 74.3343 91.1522 74.3343C91.2802 74.3343 91.3762 74.3823 91.4402 74.4783C91.5149 74.5743 91.5362 74.6863 91.5042 74.8143L91.3602 75.4543C91.3282 75.593 91.2535 75.7103 91.1362 75.8063C91.0295 75.8917 90.9122 75.9343 90.7842 75.9343ZM88.7202 85.2143C88.5815 85.2143 88.4749 85.161 88.4002 85.0543C88.3255 84.9477 88.2989 84.8357 88.3202 84.7183L89.8882 77.7743C89.9309 77.6357 90.0055 77.5183 90.1122 77.4223C90.2295 77.3263 90.3575 77.2783 90.4962 77.2783C90.6135 77.2783 90.7095 77.3157 90.7842 77.3903C90.8589 77.4543 90.8962 77.545 90.8962 77.6623C90.8962 77.7157 90.8909 77.7583 90.8802 77.7903L89.3122 84.7183C89.2802 84.857 89.2055 84.9743 89.0882 85.0703C88.9815 85.1663 88.8589 85.2143 88.7202 85.2143ZM98.0096 77.1823C98.3829 77.1823 98.6549 77.273 98.8256 77.4543C99.0069 77.6357 99.0976 77.8597 99.0976 78.1263C99.0976 78.2757 99.0709 78.4463 99.0176 78.6383C98.9749 78.8303 98.9482 78.9583 98.9376 79.0223C98.9056 79.1503 98.8362 79.257 98.7296 79.3423C98.6229 79.4277 98.5002 79.4703 98.3616 79.4703C98.2336 79.4703 98.1376 79.433 98.0736 79.3583C98.0202 79.2837 97.9936 79.2037 97.9936 79.1183C97.9936 79.0863 98.0149 78.9957 98.0576 78.8463C98.1002 78.6863 98.1216 78.5637 98.1216 78.4783C98.1216 78.2437 97.9722 78.1263 97.6736 78.1263C97.3322 78.1263 96.9696 78.2543 96.5856 78.5103C96.2016 78.7557 95.8282 79.065 95.4656 79.4383C95.2096 79.705 94.9909 79.9983 94.8096 80.3183C94.6282 80.6277 94.5109 80.9103 94.4576 81.1663L93.6896 84.7663C93.6576 84.8837 93.5829 84.9903 93.4656 85.0863C93.3482 85.1717 93.2309 85.2143 93.1136 85.2143C92.9962 85.2143 92.8949 85.1717 92.8096 85.0863C92.7242 84.9903 92.6922 84.8837 92.7136 84.7663L94.2336 77.6943C94.2549 77.5663 94.3242 77.4597 94.4416 77.3743C94.5589 77.2783 94.6816 77.2303 94.8096 77.2303C94.9482 77.2303 95.0549 77.2783 95.1296 77.3743C95.2042 77.4597 95.2309 77.5663 95.2096 77.6943L94.9216 79.0703C95.3056 78.5477 95.7856 78.105 96.3616 77.7423C96.9376 77.369 97.4869 77.1823 98.0096 77.1823ZM101.709 85.2143C101.015 85.2143 100.461 85.001 100.045 84.5743C99.6392 84.137 99.4366 83.529 99.4366 82.7503C99.4366 81.7903 99.6286 80.889 100.013 80.0463C100.407 79.193 100.946 78.5157 101.629 78.0143C102.311 77.5023 103.074 77.2463 103.917 77.2463C104.653 77.2463 105.33 77.4437 105.949 77.8383L106.717 74.5903C106.749 74.4517 106.823 74.3343 106.941 74.2383C107.058 74.1423 107.186 74.0943 107.325 74.0943C107.453 74.0943 107.554 74.1477 107.629 74.2543C107.703 74.3503 107.725 74.4677 107.693 74.6063L105.309 84.7503C105.266 84.889 105.186 85.001 105.069 85.0863C104.962 85.1717 104.839 85.2143 104.701 85.2143C104.573 85.2143 104.477 85.1717 104.413 85.0863C104.349 85.001 104.317 84.8997 104.317 84.7823C104.317 84.7183 104.322 84.6757 104.333 84.6543L104.525 83.9663C104.151 84.297 103.709 84.5903 103.197 84.8463C102.695 85.0917 102.199 85.2143 101.709 85.2143ZM101.821 84.3023C102.311 84.3023 102.781 84.1957 103.229 83.9823C103.677 83.769 104.05 83.513 104.349 83.2143C104.647 82.905 104.829 82.617 104.893 82.3503L105.725 78.7663C105.511 78.6277 105.229 78.4943 104.877 78.3663C104.525 78.2383 104.151 78.1743 103.757 78.1743C103.106 78.1743 102.525 78.3823 102.013 78.7983C101.501 79.2143 101.101 79.7637 100.813 80.4463C100.535 81.1183 100.397 81.8383 100.397 82.6063C100.397 83.161 100.519 83.5823 100.765 83.8703C101.021 84.1583 101.373 84.3023 101.821 84.3023ZM109.857 82.7503C109.729 82.7503 109.622 82.7077 109.537 82.6223C109.462 82.5263 109.441 82.4037 109.473 82.2543L111.073 74.6703C111.105 74.5317 111.185 74.4143 111.313 74.3183C111.441 74.2117 111.569 74.1583 111.697 74.1583C111.846 74.1583 111.953 74.217 112.017 74.3343C112.081 74.441 112.097 74.553 112.065 74.6703L110.465 82.2543C110.443 82.393 110.369 82.5103 110.241 82.6063C110.123 82.7023 109.995 82.7503 109.857 82.7503ZM109.249 85.2143C109.11 85.2143 108.998 85.1717 108.913 85.0863C108.838 84.9903 108.801 84.873 108.801 84.7343C108.801 84.521 108.891 84.3183 109.073 84.1263C109.265 83.9237 109.462 83.8223 109.665 83.8223C109.793 83.8223 109.894 83.8703 109.969 83.9663C110.043 84.0517 110.081 84.153 110.081 84.2703C110.081 84.505 109.99 84.7237 109.809 84.9263C109.627 85.1183 109.441 85.2143 109.249 85.2143Z" fill="black"/>
</svg>
