<svg width="138" height="116" viewBox="0 0 138 116" fill="none" xmlns="http://www.w3.org/2000/svg">
<path d="M121.177 30.6812C109.76 30.6812 31.1053 30.6812 10.3849 30.6812C-10.3355 30.6812 3.1963 76.6812 22.6483 76.6812C42.1004 76.6812 67.0495 76.6812 67.0495 76.6812C67.0495 76.6812 76.7755 88.1812 87.3472 93.1812C97.919 98.1812 118.64 99.6812 118.64 99.6812C118.64 99.6812 106.376 93.1812 100.879 86.1812C95.3817 79.1812 98.7647 76.6812 98.7647 76.6812C98.7647 76.6812 116.102 76.6812 130.48 76.6812C144.858 76.6812 132.595 30.6812 121.177 30.6812Z" fill="white"/>
<path fill-rule="evenodd" clip-rule="evenodd" d="M1.08905 37.0949C-3.65664 49.7419 7.76231 76.6812 22.6483 76.6812H67.0495C67.0495 76.6812 76.7755 88.1812 87.3472 93.1812C97.919 98.1812 118.64 99.6812 118.64 99.6812C118.64 99.6812 114.114 97.2822 109.328 93.8297C102.586 92.8525 94.0104 91.1784 88.3472 88.5C77.7755 83.5 68.0495 72 68.0495 72H23.6483C10.414 72 -0.0800331 50.7071 1.08905 37.0949ZM99.0959 76.6812C97.9947 73.3081 99.7647 72 99.7647 72H131.48C134.138 72 135.885 70.4279 136.896 67.8649C136.447 73.067 134.51 76.6812 130.48 76.6812H99.0959Z" fill="#DDDDDD"/>
<path d="M98.7647 76.6812C98.7647 75.6812 98.7648 75.6812 98.7649 75.6812H98.7655H98.7665H98.7679H98.7696H98.7718H98.7744H98.7773H98.7807H98.7844H98.7885H98.793H98.7979H98.8032H98.8088H98.8149H98.8213H98.8281H98.8353H98.8429H98.8508H98.8591H98.8678H98.8769H98.8864H98.8962H98.9064H98.9169H98.9279H98.9392H98.9509H98.9629H98.9753H98.9881H99.0013H99.0148H99.0287H99.0429H99.0575H99.0725H99.0878H99.1035H99.1196H99.136H99.1527H99.1698H99.1873H99.2051H99.2233H99.2418H99.2607H99.28H99.2995H99.3195H99.3398H99.3604H99.3814H99.4027H99.4243H99.4463H99.4687H99.4914H99.5144H99.5378H99.5615H99.5855H99.6099H99.6346H99.6597H99.6851H99.7108H99.7368H99.7632H99.7899H99.817H99.8444H99.8721H99.9001H99.9284H99.9571H99.9861H100.015H100.045H100.075H100.105H100.136H100.167H100.198H100.23H100.262H100.294H100.326H100.359H100.392H100.426H100.459H100.494H100.528H100.563H100.598H100.633H100.669H100.704H100.741H100.777H100.814H100.851H100.889H100.926H100.964H101.003H101.041H101.08H101.119H101.159H101.199H101.239H101.279H101.32H101.361H101.402H101.443H101.485H101.527H101.57H101.612H101.655H101.698H101.742H101.786H101.83H101.874H101.919H101.964H102.009H102.054H102.1H102.146H102.192H102.239H102.285H102.333H102.38H102.427H102.475H102.523H102.572H102.621H102.669H102.719H102.768H102.818H102.868H102.918H102.968H103.019H103.07H103.121H103.173H103.225H103.277H103.329H103.381H103.434H103.487H103.54H103.594H103.648H103.702H103.756H103.81H103.865H103.92H103.975H104.031H104.086H104.142H104.198H104.255H104.311H104.368H104.425H104.483H104.54H104.598H104.656H104.714H104.773H104.831H104.89H104.949H105.009H105.068H105.128H105.188H105.248H105.309H105.369H105.43H105.491H105.553H105.614H105.676H105.738H105.8H105.863H105.925H105.988H106.051H106.114H106.178H106.241H106.305H106.369H106.433H106.498H106.563H106.627H106.692H106.758H106.823H106.889H106.955H107.021H107.087H107.153H107.22H107.287H107.354H107.421H107.488H107.556H107.623H107.691H107.759H107.828H107.896H107.965H108.034H108.103H108.172H108.241H108.311H108.381H108.45H108.521H108.591H108.661H108.732H108.803H108.874H108.945H109.016H109.087H109.159H109.231H109.303H109.375H109.447H109.519H109.592H109.665H109.738H109.811H109.884H109.957H110.031H110.105H110.178H110.252H110.327H110.401H110.475H110.55H110.625H110.7H110.775H110.85H110.925H111.001H111.076H111.152H111.228H111.304H111.38H111.456H111.533H111.609H111.686H111.763H111.84H111.917H111.994H112.072H112.149H112.227H112.305H112.383H112.461H112.539H112.617H112.695H112.774H112.853H112.931H113.01H113.089H113.168H113.248H113.327H113.406H113.486H113.566H113.646H113.726H113.806H113.886H113.966H114.046H114.127H114.207H114.288H114.369H114.45H114.531H114.612H114.693H114.774H114.856H114.937H115.019H115.101H115.182H115.264H115.346H115.428H115.51H115.593H115.675H115.757H115.84H115.923H116.005H116.088H116.171H116.254H116.337H116.42H116.503H116.586H116.67H116.753H116.837H116.92H117.004H117.088H117.172H117.255H117.339H117.423H117.507H117.592H117.676H117.76H117.845H117.929H118.013H118.098H118.183H118.267H118.352H118.437H118.522H118.607H118.692H118.777H118.862H118.947H119.032H119.117H119.203H119.288H119.373H119.459H119.544H119.63H119.716H119.801H119.887H119.973H120.058H120.144H120.23H120.316H120.402H120.488H120.574H120.66H120.746H120.832H120.918H121.005H121.091H121.177H121.263H121.35H121.436H121.522H121.609H121.695H121.782H121.868H121.955H122.041H122.128H122.214H122.301H122.387H122.474H122.561H122.647H122.734H122.821H122.907H122.994H123.081H123.167H123.254H123.341H123.428H123.514H123.601H123.688H123.775H123.861H123.948H124.035H124.122H124.208H124.295H124.382H124.469H124.556H124.642H124.729H124.816H124.903H124.989H125.076H125.163H125.249H125.336H125.423H125.509H125.596H125.683H125.769H125.856H125.942H126.029H126.115H126.202H126.288H126.375H126.461H126.548H126.634H126.721H126.807H126.893H126.979H127.066H127.152H127.238H127.324H127.41H127.496H127.582H127.668H127.754H127.84H127.926H128.012H128.098H128.184H128.269H128.355H128.441H128.526H128.612H128.697H128.783H128.868H128.953H129.039H129.124H129.209H129.294H129.379H129.464H129.549H129.634H129.719H129.804H129.889H129.973H130.058H130.142H130.227H130.311H130.396H130.48C131.968 75.6812 133.066 75.1045 133.899 74.0753C134.765 73.0063 135.378 71.4015 135.71 69.3348C136.375 65.2045 135.862 59.5989 134.528 53.9094C133.197 48.2326 131.075 42.5814 128.607 38.3748C127.371 36.2695 126.073 34.5664 124.776 33.4016C123.472 32.23 122.261 31.6812 121.177 31.6812H121.109H121.04H120.97H120.897H120.824H120.748H120.671H120.593H120.513H120.432H120.349H120.265H120.179H120.092H120.004H119.914H119.822H119.729H119.635H119.539H119.442H119.343H119.243H119.141H119.038H118.934H118.828H118.721H118.613H118.503H118.392H118.279H118.165H118.05H117.933H117.815H117.696H117.575H117.453H117.33H117.205H117.079H116.952H116.823H116.694H116.562H116.43H116.296H116.161H116.025H115.888H115.749H115.609H115.468H115.325H115.182H115.037H114.89H114.743H114.595H114.445H114.294H114.142H113.988H113.834H113.678H113.521H113.363H113.204H113.044H112.882H112.72H112.556H112.391H112.225H112.058H111.89H111.72H111.55H111.378H111.205H111.032H110.857H110.681H110.504H110.326H110.147H109.967H109.786H109.603H109.42H109.236H109.051H108.864H108.677H108.489H108.299H108.109H107.917H107.725H107.532H107.338H107.142H106.946H106.749H106.551H106.352H106.152H105.951H105.749H105.546H105.342H105.138H104.932H104.726H104.519H104.31H104.101H103.891H103.68H103.469H103.256H103.043H102.828H102.613H102.397H102.181H101.963H101.744H101.525H101.305H101.084H100.863H100.64H100.417H100.193H99.9679H99.7423H99.5159H99.2888H99.0609H98.8322H98.6029H98.3727H98.1419H97.9103H97.678H97.445H97.2112H96.9768H96.7417H96.5058H96.2693H96.0321H95.7942H95.5557H95.3165H95.0766H94.836H94.5949H94.353H94.1106H93.8675H93.6238H93.3794H93.1345H92.8889H92.6427H92.3959H92.1486H91.9006H91.6521H91.403H91.1533H90.903H90.6522H90.4009H90.1489H89.8965H89.6435H89.39H89.1359H88.8814H88.6263H88.3707H88.1146H87.858H87.6009H87.3433H87.0853H86.8267H86.5677H86.3083H86.0483H85.788H85.5271H85.2659H85.0042H84.742H84.4795H84.2165H83.9531H83.6893H83.4251H83.1604H82.8955H82.6301H82.3643H82.0982H81.8316H81.5648H81.2975H81.03H80.762H80.4938H80.2252H79.9562H79.6869H79.4174H79.1475H78.8773H78.6068H78.336H78.0649H77.7935H77.5218H77.2499H76.9777H76.7052H76.4325H76.1595H75.8863H75.6128H75.3391H75.0652H74.7911H74.5167H74.2421H73.9673H73.6923H73.4171H73.1418H72.8662H72.5905H72.3145H72.0385H71.7622H71.4858H71.2093H70.9326H70.6557H70.3787H70.1016H69.8244H69.5471H69.2696H68.9921H68.7144H68.4366H68.1588H67.8809H67.6028H67.3248H67.0466H66.7684H66.4901H66.2118H65.9334H65.655H65.3766H65.0981H64.8197H64.5412H64.2626H63.9841H63.7056H63.4271H63.1486H62.8701H62.5916H62.3132H62.0348H61.7564H61.4781H61.1998H60.9216H60.6434H60.3654H60.0873H59.8094H59.5316H59.2538H58.9761H58.6986H58.4211H58.1437H57.8665H57.5894H57.3124H57.0356H56.7589H56.4823H56.2059H55.9296H55.6535H55.3776H55.1019H54.8263H54.5509H54.2757H54.0007H53.7259H53.4513H53.1769H52.9028H52.6288H52.3551H52.0817H51.8084H51.5354H51.2627H50.9902H50.718H50.4461H50.1744H49.903H49.6319H49.3611H49.0905H48.8203H48.5504H48.2808H48.0115H47.7426H47.4739H47.2056H46.9377H46.6701H46.4028H46.1359H45.8694H45.6033H45.3375H45.0721H44.8071H44.5424H44.2782H44.0144H43.751H43.4879H43.2254H42.9632H42.7015H42.4402H42.1793H41.9189H41.659H41.3995H41.1404H40.8819H40.6238H40.3662H40.1091H39.8525H39.5963H39.3407H39.0856H38.831H38.5769H38.3234H38.0704H37.8179H37.5659H37.3146H37.0637H36.8134H36.5637H36.3146H36.066H35.818H35.5706H35.3238H35.0776H34.832H34.587H34.3426H34.0989H33.8558H33.6133H33.3714H33.1302H32.8896H32.6497H32.4105H32.1719H31.934H31.6967H31.4602H31.2243H30.9891H30.7546H30.5209H30.2878H30.0555H29.8238H29.5929H29.3628H29.1334H28.9047H28.6768H28.4496H28.2232H27.9975H27.7727H27.5486H27.3252H27.1027H26.881H26.66H26.4399H26.2206H26.0021H25.7844H25.5676H25.3516H25.1364H24.9221H24.7086H24.496H24.2842H24.0733H23.8633H23.6542H23.4459H23.2385H23.0321H22.8265H22.6218H22.4181H22.2152H22.0133H21.8123H21.6123H21.4132H21.215H21.0178H20.8215H20.6262H20.4319H20.2385H20.0462H19.8548H19.6644H19.475H19.2866H19.0992H18.9128H18.7274H18.5431H18.3598H18.1775H17.9962H17.8161H17.6369H17.4588H17.2818H17.1059H16.931H16.7572H16.5845H16.4129H16.2423H16.0729H15.9046H15.7374H15.5713H15.4064H15.2426H15.0799H14.9183H14.7579H14.5987H14.4406H14.2836H14.1279H13.9733H13.8199H13.6677H13.5167H13.3668H13.2182H13.0708H12.9246H12.7796H12.6359H12.4933H12.352H12.212H12.0732H11.9356H11.7994H11.6643H11.5306H11.3981H11.2669H11.137H11.0084H10.8811H10.7551H10.6303H10.507H10.3849C7.98947 31.6812 6.16321 32.3417 4.789 33.4391C3.40608 34.5435 2.40558 36.1512 1.77907 38.1656C0.517258 42.2227 0.830032 47.759 2.41481 53.4112C3.99446 59.0451 6.8011 64.6594 10.3727 68.8445C13.9558 73.0432 18.1959 75.6812 22.6483 75.6812H22.7624H22.8765H22.9908H23.1052H23.2198H23.3344H23.4492H23.5641H23.6791H23.7942H23.9094H24.0247H24.1402H24.2557H24.3714H24.4871H24.603H24.719H24.8351H24.9512H25.0675H25.1839H25.3003H25.4169H25.5335H25.6503H25.7671H25.884H26.001H26.1181H26.2353H26.3526H26.4699H26.5873H26.7049H26.8224H26.9401H27.0578H27.1757H27.2935H27.4115H27.5295H27.6476H27.7658H27.884H28.0023H28.1207H28.2391H28.3576H28.4761H28.5947H28.7133H28.832H28.9508H29.0696H29.1885H29.3074H29.4264H29.5454H29.6644H29.7835H29.9026H30.0218H30.1411H30.2603H30.3796H30.4989H30.6183H30.7377H30.8572H30.9766H31.0961H31.2156H31.3352H31.4548H31.5743H31.694H31.8136H31.9333H32.0529H32.1726H32.2924H32.4121H32.5318H32.6516H32.7713H32.8911H33.0109H33.1307H33.2504H33.3702H33.49H33.6098H33.7296H33.8494H33.9692H34.089H34.2087H34.3285H34.4483H34.568H34.6877H34.8075H34.9272H35.0469H35.1665H35.2862H35.4058H35.5255H35.6451H35.7646H35.8842H36.0037H36.1232H36.2426H36.3621H36.4815H36.6008H36.7202H36.8394H36.9587H37.0779H37.1971H37.3162H37.4353H37.5544H37.6734H37.7923H37.9112H38.0301H38.1489H38.2677H38.3864H38.505H38.6236H38.7421H38.8606H38.979H39.0974H39.2156H39.3339H39.452H39.5701H39.6881H39.8061H39.9239H40.0417H40.1595H40.2771H40.3947H40.5122H40.6296H40.747H40.8642H40.9814H41.0985H41.2155H41.3324H41.4492H41.5659H41.6826H41.7991H41.9156H42.0319H42.1482H42.2644H42.3804H42.4964H42.6122H42.728H42.8436H42.9592H43.0746H43.1899H43.3051H43.4202H43.5352H43.6501H43.7648H43.8795H43.994H44.1084H44.2226H44.3368H44.4508H44.5647H44.6785H44.7921H44.9056H45.019H45.1323H45.2454H45.3584H45.4712H45.5839H45.6965H45.8089H45.9212H46.0333H46.1453H46.2572H46.3689H46.4804H46.5918H46.703H46.8141H46.9251H47.0359H47.1465H47.257H47.3673H47.4774H47.5874H47.6972H47.8069H47.9164H48.0257H48.1348H48.2438H48.3526H48.4612H48.5697H48.678H48.7861H48.894H49.0017H49.1093H49.2167H49.3239H49.4309H49.5377H49.6443H49.7508H49.857H49.9631H50.069H50.1746H50.2801H50.3854H50.4904H50.5953H50.7H50.8045H50.9087H51.0128H51.1166H51.2203H51.3237H51.4269H51.5299H51.6327H51.7353H51.8377H51.9398H52.0417H52.1434H52.2449H52.3461H52.4472H52.548H52.6485H52.7489H52.849H52.9489H53.0485H53.1479H53.2471H53.346H53.4447H53.5432H53.6414H53.7394H53.8371H53.9346H54.0318H54.1288H54.2256H54.322H54.4183H54.5143H54.61H54.7055H54.8007H54.8956H54.9903H55.0847H55.1789H55.2728H55.3664H55.4598H55.5529H55.6457H55.7383H55.8306H55.9226H56.0143H56.1058H56.1969H56.2878H56.3784H56.4688H56.5588H56.6486H56.7381H56.8273H56.9162H57.0048H57.0931H57.1811H57.2688H57.3563H57.4434H57.5302H57.6168H57.703H57.7889H57.8746H57.9599H58.0449H58.1296H58.214H58.2981H58.3819H58.4653H58.5485H58.6313H58.7138H58.796H58.8779H58.9594H59.0407H59.1216H59.2021H59.2824H59.3623H59.4419H59.5211H59.6001H59.6787H59.7569H59.8348H59.9124H59.9897H60.0666H60.1431H60.2193H60.2952H60.3707H60.4459H60.5207H60.5952H60.6693H60.7431H60.8165H60.8895H60.9622H61.0346H61.1066H61.1782H61.2494H61.3203H61.3909H61.461H61.5308H61.6002H61.6693H61.738H61.8063H61.8742H61.9418H62.0089H62.0757H62.1422H62.2082H62.2738H62.3391H62.404H62.4685H62.5326H62.5963H62.6596H62.7226H62.7851H62.8472H62.909H62.9703H63.0313H63.0918H63.152H63.2117H63.271H63.33H63.3885H63.4466H63.5043H63.5616H63.6185H63.6749H63.731H63.7866H63.8418H63.8966H63.951H64.0049H64.0584H64.1115H64.1642H64.2165H64.2683H64.3196H64.3706H64.4211H64.4712H64.5208H64.57H64.6188H64.6671H64.715H64.7625H64.8095H64.856H64.9021H64.9478H64.993H65.0377H65.082H65.1259H65.1693H65.2122H65.2547H65.2967H65.3383H65.3794H65.42H65.4602H65.4999H65.5391H65.5779H65.6162H65.654H65.6914H65.7282H65.7646H65.8006H65.836H65.871H65.9054H65.9394H65.973H66.006H66.0385H66.0706H66.1022H66.1332H66.1638H66.1939H66.2235H66.2526H66.2812H66.3093H66.3369H66.364H66.3906H66.4167H66.4423H66.4674H66.492H66.516H66.5396H66.5626H66.5851H66.6072H66.6286H66.6496H66.6701H66.69H66.7094H66.7283H66.7467H66.7645H66.7818H66.7986H66.8149H66.8306H66.8458H66.8604H66.8746H66.8881H66.9012H66.9137H66.9257H66.9371H66.948H66.9583H66.9681H66.9773H66.986H66.9941H67.0017H67.0087H67.0152H67.0211H67.0265H67.0313H67.0356H67.0392H67.0424H67.0449H67.0469H67.0483H67.0492C67.0494 75.6812 67.0495 75.6812 67.0495 76.6812V75.6812H67.5134L67.8129 76.0353L67.813 76.0354L67.814 76.0365L67.8185 76.0418L67.8379 76.0646C67.8555 76.0852 67.8823 76.1165 67.918 76.1578C67.9895 76.2405 68.0966 76.3636 68.2373 76.5228C68.5187 76.8411 68.934 77.3034 69.4661 77.8746C70.5306 79.0174 72.06 80.594 73.916 82.3248C77.6413 85.7991 82.627 89.8425 87.7748 92.2772C92.9183 94.7099 100.615 96.3188 107.11 97.3178C109.779 97.7283 112.225 98.0329 114.176 98.2491C113.291 97.7056 112.305 97.0802 111.266 96.3884C107.496 93.8771 102.944 90.43 100.093 86.7988C97.2589 83.1904 96.5694 80.5603 96.7659 78.701C96.864 77.7732 97.1792 77.0884 97.4923 76.623C97.6475 76.3923 97.8002 76.2183 97.9218 76.0963C97.9827 76.0352 98.0361 75.9868 98.0785 75.9506C98.0998 75.9325 98.1183 75.9173 98.1338 75.9051L98.1545 75.8889L98.1631 75.8824L98.1669 75.8795L98.1687 75.8782C98.1695 75.8775 98.1704 75.8769 98.7647 76.6812ZM98.7647 76.6812V75.6812H98.4353L98.1704 75.8769L98.7647 76.6812Z" stroke="black" stroke-width="2"/>
<path d="M134.5 42.1811C130 30.1812 129 28.1812 115 28.1811M26 81.1811C18 81.1811 15.5 80.6811 10.5 75.6811" stroke="black" stroke-width="2" stroke-linecap="round"/>
<path d="M23.256 58.6812C23.1387 58.6812 23.0427 58.6438 22.968 58.5692C22.8827 58.4945 22.84 58.3985 22.84 58.2812C22.84 58.1318 22.904 57.9985 23.032 57.8812C23.16 57.7638 23.304 57.7052 23.464 57.7052H25.016L26.888 48.9372H25.336C25.2187 48.9372 25.1173 48.8998 25.032 48.8252C24.9573 48.7505 24.92 48.6598 24.92 48.5532C24.92 48.3932 24.984 48.2545 25.112 48.1372C25.24 48.0198 25.384 47.9612 25.544 47.9612H29.608C29.7253 47.9612 29.8213 47.9985 29.896 48.0732C29.9707 48.1372 30.008 48.2225 30.008 48.3292C30.008 48.4785 29.944 48.6172 29.816 48.7452C29.688 48.8732 29.5493 48.9372 29.4 48.9372H27.864L25.992 57.7052H27.528C27.6453 57.7052 27.7413 57.7372 27.816 57.8012C27.8907 57.8652 27.928 57.9505 27.928 58.0572C27.928 58.2172 27.864 58.3612 27.736 58.4892C27.6187 58.6172 27.48 58.6812 27.32 58.6812H23.256ZM31.6176 58.7932C31.4683 58.7932 31.3616 58.7452 31.2976 58.6492C31.2336 58.5532 31.2123 58.4412 31.2336 58.3132L32.6576 51.7052H30.8176C30.711 51.7052 30.6203 51.6732 30.5456 51.6092C30.471 51.5345 30.4336 51.4385 30.4336 51.3212C30.4336 51.1612 30.4923 51.0332 30.6096 50.9372C30.7376 50.8305 30.887 50.7772 31.0576 50.7772H32.8496L33.3136 48.5532C33.335 48.4252 33.4043 48.3132 33.5216 48.2172C33.6496 48.1105 33.7776 48.0572 33.9056 48.0572C34.055 48.0572 34.1616 48.1105 34.2256 48.2172C34.2896 48.3238 34.3056 48.4358 34.2736 48.5532L33.8096 50.7772H35.6496C35.767 50.7772 35.8576 50.8145 35.9216 50.8892C35.9963 50.9532 36.0336 51.0438 36.0336 51.1612C36.0336 51.2998 35.9696 51.4278 35.8416 51.5452C35.7243 51.6518 35.591 51.7052 35.4416 51.7052H33.6176L32.2096 58.3292C32.1776 58.4572 32.0976 58.5692 31.9696 58.6652C31.8523 58.7505 31.735 58.7932 31.6176 58.7932ZM37.9601 49.6892C37.8748 49.6892 37.8001 49.6625 37.7361 49.6092C37.6721 49.5452 37.6401 49.4705 37.6401 49.3852C37.6401 49.2998 37.6615 49.2198 37.7041 49.1452L38.2961 48.1532C38.2855 48.1425 38.2641 48.1052 38.2321 48.0412C38.2001 47.9772 38.1841 47.8972 38.1841 47.8012C38.1841 47.5878 38.2695 47.3905 38.4401 47.2092C38.6215 47.0172 38.8188 46.9212 39.0321 46.9212C39.1708 46.9212 39.2828 46.9692 39.3681 47.0652C39.4535 47.1505 39.4961 47.2678 39.4961 47.4172C39.4961 47.5665 39.3628 47.8545 39.0961 48.2812L38.4881 49.2412C38.3921 49.4118 38.3015 49.5292 38.2161 49.5932C38.1415 49.6572 38.0561 49.6892 37.9601 49.6892ZM42.117 58.7772C41.5303 58.7772 41.0343 58.6758 40.629 58.4732C40.2343 58.2598 39.941 58.0038 39.749 57.7052C39.557 57.3958 39.461 57.1078 39.461 56.8412C39.461 56.6812 39.5197 56.5372 39.637 56.4092C39.7543 56.2812 39.8877 56.2172 40.037 56.2172C40.2503 56.2172 40.373 56.3238 40.405 56.5372C40.4583 56.9958 40.6397 57.3372 40.949 57.5612C41.2583 57.7852 41.7063 57.8972 42.293 57.8972C42.645 57.8972 42.9757 57.8225 43.285 57.6732C43.605 57.5132 43.8557 57.3052 44.037 57.0492C44.229 56.7825 44.325 56.5052 44.325 56.2172C44.325 55.9718 44.213 55.7638 43.989 55.5932C43.765 55.4118 43.3543 55.2198 42.757 55.0172C42.053 54.7825 41.541 54.5158 41.221 54.2172C40.901 53.9185 40.741 53.5292 40.741 53.0492C40.741 52.6332 40.8637 52.2545 41.109 51.9132C41.3543 51.5612 41.7063 51.2892 42.165 51.0972C42.6237 50.8945 43.157 50.7932 43.765 50.7932C44.533 50.7932 45.109 50.9212 45.493 51.1772C45.8877 51.4225 46.085 51.7745 46.085 52.2332C46.085 52.5105 46.021 52.7718 45.893 53.0172C45.7757 53.2518 45.6103 53.3692 45.397 53.3692C45.2797 53.3692 45.1837 53.3372 45.109 53.2732C45.0343 53.2092 44.997 53.1292 44.997 53.0332C44.997 52.9692 45.0237 52.8785 45.077 52.7612C45.1303 52.6438 45.157 52.5212 45.157 52.3932C45.157 51.8918 44.6877 51.6412 43.749 51.6412C43.109 51.6412 42.597 51.7585 42.213 51.9932C41.8397 52.2278 41.653 52.5265 41.653 52.8892C41.653 53.1772 41.7703 53.4118 42.005 53.5932C42.2397 53.7745 42.645 53.9665 43.221 54.1692C43.9783 54.4465 44.5063 54.7132 44.805 54.9692C45.1143 55.2252 45.269 55.5878 45.269 56.0572C45.269 56.5265 45.1197 56.9745 44.821 57.4012C44.533 57.8172 44.1437 58.1532 43.653 58.4092C43.173 58.6545 42.661 58.7772 42.117 58.7772ZM56.0698 58.7772C55.3338 58.7772 54.7418 58.5532 54.2938 58.1052C53.8564 57.6465 53.6378 57.0332 53.6378 56.2652C53.6378 55.4438 53.8618 54.6065 54.3098 53.7532C54.7578 52.8998 55.3551 52.1958 56.1018 51.6412C56.8591 51.0758 57.6698 50.7932 58.5338 50.7932C59.2911 50.7932 60.0538 51.0118 60.8218 51.4492L59.3498 58.3932C59.3071 58.5532 59.2271 58.6758 59.1098 58.7612C59.0031 58.8572 58.8858 58.9052 58.7578 58.9052C58.6191 58.9052 58.5124 58.8572 58.4378 58.7612C58.3738 58.6758 58.3578 58.5585 58.3898 58.4092L58.5018 57.9132C58.1391 58.1692 57.7444 58.3772 57.3177 58.5372C56.9018 58.6972 56.4858 58.7772 56.0698 58.7772ZM56.2458 57.8812C56.6724 57.8812 57.1098 57.7798 57.5578 57.5772C58.0058 57.3745 58.3738 57.1612 58.6618 56.9372L59.7658 52.0252C59.5951 51.9505 59.3818 51.8812 59.1258 51.8172C58.8698 51.7425 58.6244 51.7052 58.3898 51.7052C57.7818 51.7052 57.1844 51.9238 56.5978 52.3612C56.0218 52.7878 55.5471 53.3425 55.1738 54.0252C54.8111 54.7078 54.6298 55.3958 54.6298 56.0892C54.6298 57.2838 55.1684 57.8812 56.2458 57.8812ZM68.4806 61.8652C68.342 61.8652 68.2406 61.8172 68.1766 61.7212C68.102 61.6252 68.0753 61.5132 68.0966 61.3852L70.2566 51.2732C70.278 51.1345 70.3473 51.0172 70.4646 50.9212C70.582 50.8252 70.7046 50.7772 70.8326 50.7772C70.9606 50.7772 71.062 50.8252 71.1366 50.9212C71.222 51.0172 71.2486 51.1292 71.2166 51.2572L71.0726 51.8652C71.9686 51.1398 72.9393 50.7772 73.9846 50.7772C74.71 50.7772 75.2646 51.0012 75.6486 51.4492C76.0433 51.8972 76.2406 52.5105 76.2406 53.2892C76.2406 53.8118 76.15 54.3718 75.9686 54.9692C75.798 55.5558 75.5793 56.0785 75.3126 56.5372C74.9286 57.1878 74.4273 57.7158 73.8086 58.1212C73.2006 58.5265 72.4753 58.7292 71.6326 58.7292C71.27 58.7292 70.9393 58.6812 70.6406 58.5852C70.3526 58.4892 70.054 58.3558 69.7446 58.1852L69.0566 61.3852C69.0353 61.5132 68.9606 61.6252 68.8326 61.7212C68.7153 61.8172 68.598 61.8652 68.4806 61.8652ZM71.9366 57.8812C73.0673 57.8812 73.9633 57.2678 74.6246 56.0412C74.806 55.6998 74.9606 55.2838 75.0886 54.7932C75.2166 54.2918 75.2806 53.8332 75.2806 53.4172C75.2806 52.2225 74.774 51.6252 73.7606 51.6252C73.1313 51.6252 72.5553 51.7798 72.0326 52.0892C71.5206 52.3878 71.126 52.6918 70.8486 53.0012L69.9366 57.3052C70.1393 57.4332 70.422 57.5612 70.7846 57.6892C71.158 57.8172 71.542 57.8812 71.9366 57.8812ZM78.4995 58.7772C78.3715 58.7772 78.2648 58.7345 78.1795 58.6492C78.0942 58.5532 78.0675 58.4412 78.0995 58.3132L80.2435 48.2332C80.2755 48.1052 80.3448 47.9985 80.4515 47.9132C80.5688 47.8172 80.6968 47.7692 80.8355 47.7692C80.9635 47.7692 81.0648 47.8172 81.1395 47.9132C81.2142 47.9985 81.2355 48.1052 81.2035 48.2332L79.0755 58.3452C79.0435 58.4625 78.9688 58.5638 78.8515 58.6492C78.7342 58.7345 78.6168 58.7772 78.4995 58.7772ZM84.8635 58.7772C84.1275 58.7772 83.5355 58.5532 83.0875 58.1052C82.6502 57.6465 82.4315 57.0332 82.4315 56.2652C82.4315 55.4438 82.6555 54.6065 83.1035 53.7532C83.5515 52.8998 84.1488 52.1958 84.8955 51.6412C85.6528 51.0758 86.4635 50.7932 87.3275 50.7932C88.0848 50.7932 88.8475 51.0118 89.6155 51.4492L88.1435 58.3932C88.1008 58.5532 88.0208 58.6758 87.9035 58.7612C87.7968 58.8572 87.6795 58.9052 87.5515 58.9052C87.4128 58.9052 87.3062 58.8572 87.2315 58.7612C87.1675 58.6758 87.1515 58.5585 87.1835 58.4092L87.2955 57.9132C86.9328 58.1692 86.5382 58.3772 86.1115 58.5372C85.6955 58.6972 85.2795 58.7772 84.8635 58.7772ZM85.0395 57.8812C85.4662 57.8812 85.9035 57.7798 86.3515 57.5772C86.7995 57.3745 87.1675 57.1612 87.4555 56.9372L88.5595 52.0252C88.3888 51.9505 88.1755 51.8812 87.9195 51.8172C87.6635 51.7425 87.4182 51.7052 87.1835 51.7052C86.5755 51.7052 85.9782 51.9238 85.3915 52.3612C84.8155 52.7878 84.3408 53.3425 83.9675 54.0252C83.6048 54.7078 83.4235 55.3958 83.4235 56.0892C83.4235 57.2838 83.9622 57.8812 85.0395 57.8812ZM91.8183 58.7772C91.6903 58.7772 91.5836 58.7345 91.4983 58.6492C91.4236 58.5532 91.3969 58.4465 91.4183 58.3292L92.9223 51.2412C92.9649 51.1132 93.0396 51.0065 93.1463 50.9212C93.2636 50.8252 93.3863 50.7772 93.5143 50.7772C93.6423 50.7772 93.7436 50.8252 93.8183 50.9212C93.9036 51.0065 93.9303 51.1132 93.8983 51.2412L93.3383 53.8652C93.8503 52.8945 94.4423 52.1425 95.1143 51.6092C95.7969 51.0652 96.4743 50.7932 97.1463 50.7932C97.7436 50.7932 98.1863 50.9638 98.4743 51.3052C98.7729 51.6358 98.9223 52.1532 98.9223 52.8572C98.9223 53.3372 98.8369 53.9932 98.6663 54.8252C98.7303 54.5265 98.5703 55.2518 98.1863 57.0012L97.9143 58.2812C97.8929 58.4198 97.8289 58.5372 97.7223 58.6332C97.6263 58.7292 97.5089 58.7772 97.3703 58.7772C97.2423 58.7772 97.1409 58.7292 97.0663 58.6332C97.0023 58.5372 96.9809 58.4252 97.0023 58.2972C97.2156 57.2518 97.4343 56.2012 97.6583 55.1452C97.8609 54.2065 97.9623 53.4812 97.9623 52.9692C97.9623 52.4785 97.8716 52.1425 97.6903 51.9612C97.5196 51.7798 97.2476 51.6892 96.8743 51.6892C96.5223 51.6892 96.1436 51.8332 95.7383 52.1212C95.3329 52.3985 94.9276 52.7878 94.5223 53.2892C94.0209 53.9185 93.6209 54.5212 93.3223 55.0972C93.0343 55.6625 92.8263 56.2438 92.6983 56.8412L92.3783 58.2652C92.3569 58.4145 92.2929 58.5372 92.1863 58.6332C92.0796 58.7292 91.9569 58.7772 91.8183 58.7772ZM104.469 58.7772C103.787 58.7772 103.2 58.6492 102.709 58.3932C102.219 58.1265 101.845 57.7692 101.589 57.3212C101.333 56.8625 101.205 56.3505 101.205 55.7852C101.205 54.9852 101.419 54.2012 101.845 53.4332C102.272 52.6545 102.837 52.0198 103.541 51.5292C104.245 51.0385 104.987 50.7932 105.765 50.7932C106.341 50.7932 106.821 50.8998 107.205 51.1132C107.589 51.3158 107.872 51.5665 108.053 51.8652C108.235 52.1638 108.325 52.4518 108.325 52.7292C108.325 52.9105 108.288 53.0545 108.213 53.1612C108.149 53.2572 108.027 53.3478 107.845 53.4332L102.229 56.2972C102.325 56.8092 102.581 57.2038 102.997 57.4812C103.424 57.7478 103.941 57.8812 104.549 57.8812C104.933 57.8812 105.339 57.8012 105.765 57.6412C106.203 57.4705 106.56 57.2572 106.837 57.0012C106.923 56.9158 107.035 56.8732 107.173 56.8732C107.291 56.8732 107.381 56.9052 107.445 56.9692C107.509 57.0225 107.541 57.1025 107.541 57.2092C107.541 57.3692 107.472 57.5078 107.333 57.6252C106.981 57.9558 106.533 58.2332 105.989 58.4572C105.456 58.6705 104.949 58.7772 104.469 58.7772ZM107.397 52.8252C107.301 52.0678 106.725 51.6892 105.669 51.6892C105.157 51.6892 104.677 51.8118 104.229 52.0572C103.792 52.3025 103.403 52.6438 103.061 53.0812C102.795 53.4225 102.571 53.8172 102.389 54.2652C102.208 54.7132 102.117 55.1025 102.117 55.4332L107.397 52.8252ZM111.092 56.3132C110.964 56.3132 110.857 56.2705 110.772 56.1852C110.697 56.0892 110.676 55.9665 110.708 55.8172L112.308 48.2332C112.34 48.0945 112.42 47.9772 112.548 47.8812C112.676 47.7745 112.804 47.7212 112.932 47.7212C113.081 47.7212 113.188 47.7798 113.252 47.8972C113.316 48.0038 113.332 48.1158 113.3 48.2332L111.7 55.8172C111.679 55.9558 111.604 56.0732 111.476 56.1692C111.359 56.2652 111.231 56.3132 111.092 56.3132ZM110.484 58.7772C110.345 58.7772 110.233 58.7345 110.148 58.6492C110.073 58.5532 110.036 58.4358 110.036 58.2972C110.036 58.0838 110.127 57.8812 110.308 57.6892C110.5 57.4865 110.697 57.3852 110.9 57.3852C111.028 57.3852 111.129 57.4332 111.204 57.5292C111.279 57.6145 111.316 57.7158 111.316 57.8332C111.316 58.0678 111.225 58.2865 111.044 58.4892C110.863 58.6812 110.676 58.7772 110.484 58.7772Z" fill="black"/>
</svg>
